<svg id="Capa_1" data-name="Capa 1" xmlns="http://www.w3.org/2000/svg" width="110.5386" height="81" viewBox="0 0 110.5386 81"><defs><style>.cls-1{fill:#41aaaa;}</style></defs><title>BV_Icon_</title><g id="_3" data-name="3"><path class="cls-1" d="M99.7386,10.8h-27V5.4a5.3985,5.3985,0,0,0-5.4-5.4h-21.6a5.4,5.4,0,0,0-5.4,5.4v5.4H10.8A10.8005,10.8005,0,0,0,0,21.6V35.1H110.5386V21.6A10.8005,10.8005,0,0,0,99.7386,10.8Zm-32.4,0h-21.6V8.1a2.701,2.701,0,0,1,2.7-2.7h16.2a2.701,2.701,0,0,1,2.7,2.7Zm0,32.4a10.8,10.8,0,1,1-21.6,0,10.2205,10.2205,0,0,1,.3808-2.7H0V70.2A10.8005,10.8005,0,0,0,10.8,81H99.7386a10.8005,10.8005,0,0,0,10.8-10.8V40.5H66.958A10.2419,10.2419,0,0,1,67.3386,43.2Zm-5.4,0a5.3646,5.3646,0,0,0-.748-2.7H51.8892a5.34,5.34,0,0,0-.7506,2.7,5.4,5.4,0,0,0,10.8,0Z"/></g></svg>