<svg id="Capa_1" data-name="Capa 1" xmlns="http://www.w3.org/2000/svg" width="159.5011" height="154" viewBox="0 0 159.5011 154"><defs><style>.cls-1{fill:#41aaaa;}</style></defs><title>BV_Icon_</title><path class="cls-1" d="M147.4832,122.31H92.7569L81.9482,58.1348c4.8179-7.673,19.8885-15.1213,38.5414-18.2629,16.1235-2.7156,30.7712-1.5136,39.0115,2.5251C153.42,14.9685,115.75-1.5392,73.554,4.7887A2.5189,2.5189,0,0,0,72.0379.0355L68.9536.555a2.519,2.519,0,0,0,.13,4.9884C26.2574,13.5687-4.3026,42.5448.4959,71.0348c.0046.0273.0107.0541.0153.0814,5.349-7.3755,20-14.4054,37.98-17.4336,16.64-2.8026,31.7037-1.4309,39.7786,2.9237L89.3355,122.31H51.2547L28.4537,81.7618a7.6169,7.6169,0,0,0-13.357,7.3254L39.3282,132.179a7.6148,7.6148,0,0,0,5.3035,5.0821v13.5162a3.2227,3.2227,0,0,0,6.4454,0V137.5442H91.9014l2.2975,13.6423,3.3271-.56-2.2034-13.082h46.5611v13.2332a3.2228,3.2228,0,0,0,6.4456,0V137.4946a7.6156,7.6156,0,0,0-.8461-15.1841Z"/></svg>