<svg id="Capa_1" data-name="Capa 1" xmlns="http://www.w3.org/2000/svg" width="33" height="33" viewBox="0 0 33 33"><defs><style>.cls-1{fill:#fff;}</style></defs><title>BV_Icon_</title><path class="cls-1" d="M23.893,0H9.1066A9.1171,9.1171,0,0,0,0,9.1068V23.8932A9.117,9.117,0,0,0,9.1066,33H23.893A9.1172,9.1172,0,0,0,33,23.8932V9.1068A9.1171,9.1171,0,0,0,23.893,0Zm6.1793,23.8932a6.186,6.186,0,0,1-6.1791,6.1789H9.1066a6.1856,6.1856,0,0,1-6.1787-6.1789V9.1068A6.1859,6.1859,0,0,1,9.1066,2.9279H23.893a6.1861,6.1861,0,0,1,6.1791,6.1789V23.8932Z"/><path class="cls-1" d="M16.5,7.9971A8.5031,8.5031,0,1,0,25.0033,16.5,8.5128,8.5128,0,0,0,16.5,7.9971Zm0,14.078A5.5752,5.5752,0,1,1,22.0753,16.5,5.5815,5.5815,0,0,1,16.5,22.0752Z"/><path class="cls-1" d="M25.36,5.5144a2.1459,2.1459,0,1,0,1.5186.6285A2.1556,2.1556,0,0,0,25.36,5.5144Z"/></svg>