<svg id="Capa_1" data-name="Capa 1" xmlns="http://www.w3.org/2000/svg" width="183.2664" height="108.2676" viewBox="0 0 183.2664 108.2676"><defs><style>.cls-1{fill:#fff;}</style></defs><title>BV_Icon_</title><path class="cls-1" d="M104.42,75.5449,96.773,104.9175H91.559L83.9117,75.5449h6.2569L94.108,94.3155h.1158l3.94-18.7706Z"/><path class="cls-1" d="M106.7946,69.5779V63.6685h5.9094v5.9094Zm0,35.34V75.5449h5.9094v29.3726Z"/><path class="cls-1" d="M117.57,104.9175V63.6685h5.9094V78.21h.1158a7.1438,7.1438,0,0,1,2.3464-2.23,6.1075,6.1075,0,0,1,3.1-.7822,6.2189,6.2189,0,0,1,3.3308.7531,6.341,6.341,0,0,1,1.9408,1.9117,5.846,5.846,0,0,1,.7531,2.4332,45.3094,45.3094,0,0,1,.174,4.6926V96.17a25.7683,25.7683,0,0,1-.2317,3.8816,7.8649,7.8649,0,0,1-.7531,2.4332,5.3761,5.3761,0,0,1-5.1562,2.7807,5.5313,5.5313,0,0,1-3.36-.869,14.4554,14.4554,0,0,1-2.2594-2.1436v2.6651ZM129.33,84.5827a4.745,4.745,0,0,0-.608-2.4332,2.4215,2.4215,0,0,0-2.2888-1.0427,2.7718,2.7718,0,0,0-2.1143.8978,3.2153,3.2153,0,0,0-.84,2.2885V95.706a4.0843,4.0843,0,0,0,.8113,2.636,2.6069,2.6069,0,0,0,2.1431,1.0139,2.4126,2.4126,0,0,0,2.2018-1.1009,5.3589,5.3589,0,0,0,.695-2.8965Z"/><path class="cls-1" d="M157.196,92.4617H145.4936v3.9974a2.8361,2.8361,0,0,0,.782,2.1436,2.9183,2.9183,0,0,0,2.1148.7531,2.3269,2.3269,0,0,0,2.23-.9851,5.3064,5.3064,0,0,0,.6662-1.97h5.9094a8.4586,8.4586,0,0,1-2.3753,6.2569A8.32,8.32,0,0,1,152.04,104.57a9.1777,9.1777,0,0,1-3.6494.6952,9.05,9.05,0,0,1-4.7217-1.1586,7.8472,7.8472,0,0,1-3.8527-5.7356,21.7221,21.7221,0,0,1-.2317-3.3022V85.3938a21.74,21.74,0,0,1,.2317-3.3022,7.8472,7.8472,0,0,1,3.8527-5.7356,9.0588,9.0588,0,0,1,4.7217-1.1586,9.3924,9.3924,0,0,1,3.6788.6952,8.2477,8.2477,0,0,1,2.81,1.9117,9.4956,9.4956,0,0,1,2.3171,6.5467ZM145.4936,87.827h5.793v-3.36a3.5829,3.5829,0,0,0-.782-2.52,3.0817,3.0817,0,0,0-4.2291,0,3.5829,3.5829,0,0,0-.782,2.52Z"/><path class="cls-1" d="M172.2585,83.7716a2.9418,2.9418,0,0,0-.956-2.2594,3.1143,3.1143,0,0,0-2.0566-.7531,2.6419,2.6419,0,0,0-2.1436.8981,3.1092,3.1092,0,0,0-.7531,2.0566,3.4182,3.4182,0,0,0,.4056,1.593,3.7678,3.7678,0,0,0,2.0855,1.42l3.4764,1.39a8.4375,8.4375,0,0,1,4.5477,3.4762,9.6047,9.6047,0,0,1,1.2453,4.8085,8.848,8.848,0,0,1-.6662,3.4471,9.156,9.156,0,0,1-1.825,2.81,8.3149,8.3149,0,0,1-2.7809,1.9117,8.8734,8.8734,0,0,1-3.5336.6952,8.5181,8.5181,0,0,1-6.0252-2.2594,8.2732,8.2732,0,0,1-1.97-2.7519,9.8222,9.8222,0,0,1-.8113-3.8525H166.06a5.6271,5.6271,0,0,0,.84,2.2594,2.565,2.565,0,0,0,2.3464,1.0427,3.4914,3.4914,0,0,0,2.2883-.84,2.8793,2.8793,0,0,0,1.0141-2.3464,3.431,3.431,0,0,0-.6373-2.0857,5.029,5.029,0,0,0-2.3176-1.5061l-2.8386-1.043a9.6637,9.6637,0,0,1-4.3737-3.0993,7.9311,7.9311,0,0,1-1.5933-5.0113,8.53,8.53,0,0,1,.695-3.4471,8.3976,8.3976,0,0,1,1.912-2.7519,7.81,7.81,0,0,1,2.7228-1.767,9.1916,9.1916,0,0,1,3.36-.6082,8.613,8.613,0,0,1,3.3313.6373,7.6339,7.6339,0,0,1,2.6363,1.7959,8.6034,8.6034,0,0,1,1.738,2.7519,9.0572,9.0572,0,0,1,.6373,3.3892Z"/><path class="cls-1" d="M73.7544,52.1054V10.8566h5.9094V25.3979H79.78a7.1456,7.1456,0,0,1,2.3462-2.23,6.1075,6.1075,0,0,1,3.1-.7821,6.22,6.22,0,0,1,3.331.753A6.34,6.34,0,0,1,90.4972,25.05a5.846,5.846,0,0,1,.7531,2.4332,45.3094,45.3094,0,0,1,.174,4.6926V43.3574a25.7631,25.7631,0,0,1-.2319,3.8816,7.8518,7.8518,0,0,1-.7531,2.4332,5.3757,5.3757,0,0,1-5.156,2.7807,5.5317,5.5317,0,0,1-3.36-.869A14.4652,14.4652,0,0,1,79.6638,49.44v2.6651ZM85.515,31.7706a4.7427,4.7427,0,0,0-.6082-2.4332,2.4213,2.4213,0,0,0-2.2885-1.0427,2.7724,2.7724,0,0,0-2.1145.8979,3.2161,3.2161,0,0,0-.84,2.2884V42.8939a4.0842,4.0842,0,0,0,.8111,2.636,2.6074,2.6074,0,0,0,2.1434,1.0139A2.4122,2.4122,0,0,0,84.82,45.4429a5.3567,5.3567,0,0,0,.6952-2.8965Z"/><path class="cls-1" d="M113.3809,39.65H101.678V43.647a2.8379,2.8379,0,0,0,.782,2.1436,2.9183,2.9183,0,0,0,2.1148.7531,2.3277,2.3277,0,0,0,2.2306-.9851,5.3064,5.3064,0,0,0,.6662-1.97h5.9094a8.4605,8.4605,0,0,1-2.3753,6.2569,8.3247,8.3247,0,0,1-2.7809,1.9117,9.18,9.18,0,0,1-3.65.6952,9.0507,9.0507,0,0,1-4.7217-1.1586,7.8482,7.8482,0,0,1-3.8523-5.7356,21.719,21.719,0,0,1-.2321-3.3021v-9.675a21.738,21.738,0,0,1,.2321-3.3022,7.8483,7.8483,0,0,1,3.8523-5.7355,9.0589,9.0589,0,0,1,4.7217-1.1586,9.3928,9.3928,0,0,1,3.6788.6951,8.25,8.25,0,0,1,2.81,1.9118,9.4931,9.4931,0,0,1,2.3176,6.5466ZM101.678,35.015h5.7935v-3.36a3.5849,3.5849,0,0,0-.782-2.52,3.082,3.082,0,0,0-4.23,0,3.5849,3.5849,0,0,0-.782,2.52Z"/><path class="cls-1" d="M128.9067,52.1054V49.0928h-.1158a10.9175,10.9175,0,0,1-2.3464,2.4911,5.5584,5.5584,0,0,1-3.3313.869,7.41,7.41,0,0,1-2.1143-.3187,5.4571,5.4571,0,0,1-2.0566-1.1876A5.6528,5.6528,0,0,1,117.349,48.6a10.9128,10.9128,0,0,1-.6085-3.9686,20.9243,20.9243,0,0,1,.4057-4.3739,6.9791,6.9791,0,0,1,1.5063-3.1574,6.2971,6.2971,0,0,1,2.8386-1.825,14.5008,14.5008,0,0,1,4.5771-.6082h.6368a3.3045,3.3045,0,0,1,.6373.0579,3.58,3.58,0,0,0,.6955.0579,7.1692,7.1692,0,0,1,.869.0579V31.7706a4.5051,4.5051,0,0,0-.6373-2.4911,2.5505,2.5505,0,0,0-2.3171-.9848,3.34,3.34,0,0,0-2.1148.753,3.577,3.577,0,0,0-1.2458,2.2015h-5.7354a9.4447,9.4447,0,0,1,2.6651-6.3727,8.3874,8.3874,0,0,1,2.7809-1.825,9.5345,9.5345,0,0,1,3.65-.6662,10.2777,10.2777,0,0,1,3.4759.5793,7.9489,7.9489,0,0,1,2.8386,1.738,8.5018,8.5018,0,0,1,1.8538,2.8968,10.88,10.88,0,0,1,.6955,4.0553V52.1054Zm0-12.63a9.71,9.71,0,0,0-1.6221-.1739,5.81,5.81,0,0,0-3.2731.8981,3.63,3.63,0,0,0-1.3616,3.2732,4.3061,4.3061,0,0,0,.8108,2.7228,2.7,2.7,0,0,0,2.2594,1.043,2.9157,2.9157,0,0,0,2.3464-.9851,4.16,4.16,0,0,0,.84-2.7807Z"/><path class="cls-1" d="M145.4174,43.647a2.8363,2.8363,0,0,0,.7825,2.1436,2.9164,2.9164,0,0,0,2.1143.7531,2.3277,2.3277,0,0,0,2.2306-.9851,5.3064,5.3064,0,0,0,.6662-1.97H157.12a8.4605,8.4605,0,0,1-2.3753,6.2569,8.3247,8.3247,0,0,1-2.7809,1.9117,9.18,9.18,0,0,1-3.65.6952,9.0507,9.0507,0,0,1-4.7217-1.1586,7.8482,7.8482,0,0,1-3.8523-5.7356,21.7216,21.7216,0,0,1-.2317-3.3021v-9.675A21.74,21.74,0,0,1,139.74,29.28a7.8483,7.8483,0,0,1,3.8523-5.7355,9.0589,9.0589,0,0,1,4.7217-1.1586,9.3928,9.3928,0,0,1,3.6788.6951,8.245,8.245,0,0,1,2.81,1.9118,9.8239,9.8239,0,0,1,2.3176,6.7782h-5.9094a3.7735,3.7735,0,0,0-.782-2.6359,3.0814,3.0814,0,0,0-4.2291,0,3.5826,3.5826,0,0,0-.7825,2.52Z"/><path class="cls-1" d="M159.9012,52.1054V10.8566h5.9094V25.5718h.1158a8.3953,8.3953,0,0,1,2.23-2.2884,5.7473,5.7473,0,0,1,3.3313-.8979,6.7814,6.7814,0,0,1,2.2018.3765,5.1093,5.1093,0,0,1,1.97,1.2457,6.2884,6.2884,0,0,1,1.39,2.23,9.3583,9.3583,0,0,1,.5215,3.3313V52.1054h-5.9094V31.7706a3.9368,3.9368,0,0,0-.7531-2.549,2.6058,2.6058,0,0,0-2.1436-.9269,2.4921,2.4921,0,0,0-2.3176,1.0427,5.8261,5.8261,0,0,0-.6368,3.0126V52.1054Z"/><path class="cls-1" d="M23.0957,52.0026h0a2.7322,2.7322,0,0,1-3.7094-1.0817L10.4524,35.0332a2.7322,2.7322,0,0,1,1.0817-3.7094h0a2.7322,2.7322,0,0,1,3.7094,1.0817l8.9339,15.8876A2.7322,2.7322,0,0,1,23.0957,52.0026Z"/><rect class="cls-1" x="37.2345" y="28.783" width="5.4643" height="41.6491" rx="2.7322" ry="2.7322" transform="matrix(0, 1, -1, 0, 89.5742, 9.6409)"/><path class="cls-1" d="M22.3693,52.34h4.53a0,0,0,0,1,0,0v3.6378a2.2649,2.2649,0,0,1-2.2649,2.2649h0a2.2649,2.2649,0,0,1-2.2649-2.2649V52.34A0,0,0,0,1,22.3693,52.34Z"/><path class="cls-1" d="M53.6832,52.34h4.53a0,0,0,0,1,0,0v3.6378a2.2649,2.2649,0,0,1-2.2649,2.2649h0a2.2649,2.2649,0,0,1-2.2649-2.2649V52.34A0,0,0,0,1,53.6832,52.34Z"/><rect class="cls-1" x="18.2666" y="37.6818" width="36.4914" height="2.9174" transform="translate(3.9797 81.6464) rotate(-99.5603)"/><path class="cls-1" d="M18.9635,22.2585c6.9-1.1622,13.0481-.3244,15.4363,1.8559,1.5422-2.8423,7.0763-5.6476,13.9767-6.81,5.7835-.9741,11.0377-.5429,13.9934.9058C60.15,8.1995,46.2008,2.2378,30.745,4.841,14.96,7.5,3.5833,18.0844,5.3346,28.4828l.0055.0292C7.2589,25.8664,12.5141,23.3448,18.9635,22.2585Z"/><rect class="cls-1" x="29.1272" y="3.0959" width="2.9339" height="1.8119" rx="0.906" ry="0.906" transform="translate(-0.2397 5.1368) rotate(-9.5603)"/></svg>