<svg id="Capa_1" data-name="Capa 1" xmlns="http://www.w3.org/2000/svg" width="33" height="33" viewBox="0 0 33 33"><defs><style>.cls-1{fill:#fff;}</style></defs><title>BV_Icon_</title><path class="cls-1" d="M27.5,0h-22A5.5169,5.5169,0,0,0,0,5.5008V27.4994A5.5156,5.5156,0,0,0,5.5006,33h22A5.5148,5.5148,0,0,0,33,27.4993V5.5008A5.5161,5.5161,0,0,0,27.5,0Zm-.4927,11.0162q.0159.3549.0158.7138c0,7.29-5.4533,15.6966-15.4256,15.6966A15.1553,15.1553,0,0,1,3.287,24.9477a10.7931,10.7931,0,0,0,8.0264-2.2845A5.44,5.44,0,0,1,6.2489,18.832a5.34,5.34,0,0,0,2.4483-.0946A5.4971,5.4971,0,0,1,4.3483,13.328c0-.0233,0-.0464,0-.0694a5.33,5.33,0,0,0,2.4556.69A5.5867,5.5867,0,0,1,5.1266,6.5834a15.3059,15.3059,0,0,0,11.1747,5.7642,5.6273,5.6273,0,0,1-.14-1.2573,5.47,5.47,0,0,1,5.4214-5.5165A5.3711,5.3711,0,0,1,25.54,7.3158,10.7389,10.7389,0,0,0,28.9826,5.977,5.5179,5.5179,0,0,1,26.599,9.0292a10.6938,10.6938,0,0,0,3.1138-.8687A11.1224,11.1224,0,0,1,27.0076,11.0162Z"/></svg>