<svg id="Capa_1" data-name="Capa 1" xmlns="http://www.w3.org/2000/svg" width="33" height="33" viewBox="0 0 33 33"><defs><style>.cls-1{fill:#fff;}</style></defs><title>BV_Icon_</title><path class="cls-1" d="M29.1328,0H3.8672A3.8716,3.8716,0,0,0,0,3.8672V29.1328A3.8716,3.8716,0,0,0,3.8672,33H29.1328A3.8716,3.8716,0,0,0,33,29.1328V3.8672A3.8716,3.8716,0,0,0,29.1328,0Zm1.2891,29.1328a1.2905,1.2905,0,0,1-1.2891,1.2891H21.7852V19.916h3.9826l.6581-3.9961H21.7852V13.1484a1.901,1.901,0,0,1,1.9336-1.9336h2.6426V7.2188H23.7188A5.9287,5.9287,0,0,0,17.79,13.16v2.76H13.9219V19.916H17.79V30.4219H3.8672a1.2905,1.2905,0,0,1-1.2891-1.2891V3.8672A1.2905,1.2905,0,0,1,3.8672,2.5781H29.1328a1.2905,1.2905,0,0,1,1.2891,1.2891Z"/></svg>